PathFileType	4	(X/Y/Z)	Patient4_TMGait_0pt4_01_right_34.trc.trc
DataRate	CameraRate	NumFrames	NumMarkers	Units	OrigDataRate	OrigDataStartFrame	OrigNumFrames
72.916666666667	72.916666666667	4	33	mm	72.916666666667	1	       141
Frame#	Time	Sacral			L.Shoulder			Chest			R.Shoulder			Neck			R.ASIS			L.ASIS			R.Thigh.Superior			R.Thigh.Lateral			R.Thigh.Inferior			R.Patella			L.Thigh.Superior			L.Thigh.Lateral			L.Thigh.Inferior			L.Patella			L.Shank.Superior			L.Shank.Lateral			L.Shank.Inferior			R.Shank.Superior			R.Shank.Lateral			R.Shank.Inferior			R.Heel			R.Midfoot.Superior			R.Midfoot.Lateral			R.Toe			L.Heel			L.Midfoot.Lateral			L.Midfoot.Superior			L.Toe			L.Elbow			L.Wrist			R.Elbow			R.Wrist			
		X1	Y1	Z1	X2	Y2	Z2	X3	Y3	Z3	X4	Y4	Z4	X5	Y5	Z5	X6	Y6	Z6	X7	Y7	Z7	X8	Y8	Z8	X9	Y9	Z9	X10	Y10	Z10	X11	Y11	Z11	X12	Y12	Z12	X13	Y13	Z13	X14	Y14	Z14	X15	Y15	Z15	X16	Y16	Z16	X17	Y17	Z17	X18	Y18	Z18	X19	Y19	Z19	X20	Y20	Z20	X21	Y21	Z21	X22	Y22	Z22	X23	Y23	Z23	X24	Y24	Z24	X25	Y25	Z25	X26	Y26	Z26	X27	Y27	Z27	X28	Y28	Z28	X29	Y29	Z29	X30	Y30	Z30	X31	Y31	Z31	X32	Y32	Z32	X33	Y33	Z33	

1	44.170000000000	824.683197735023	1013.643881092862	449.066466382395	1013.339908261111	1424.627924077693	233.196880472104	1107.879694597181	1372.824910971441	404.571256697829	1016.744913176488	1459.918878475621	568.131305952698	987.597096878900	1501.270726615900	382.950759943613	1053.972808994201	958.921980126653	568.311464373713	1044.679260904454	967.779904705164	292.799779528388	1138.008260186593	788.138412043761	547.387971527085	1099.760578742938	667.838274771753	626.864263149818	1190.608843985060	627.512827107609	550.542384070553	1212.274549390358	519.196835707515	577.343372140557	1080.557578108799	752.647537900430	320.921857855999	984.713084328536	639.050466006862	268.477673838944	1072.358478380505	560.971957466556	325.787256334331	1070.380356511683	493.998617266571	336.045543978992	1047.014975447008	422.217182516671	332.422148184528	956.420119692354	303.118723889973	293.483834745681	1019.683350258241	196.752342118625	364.347512484824	1145.024943213391	439.191868444153	586.041737057316	1031.266682762937	385.768231241175	650.539902179050	1030.133805025524	274.414999540361	603.671508940454	838.683297023946	181.840089188665	582.443619274685	1015.162865176347	151.710132638416	617.512736246460	908.481897940751	133.309120473101	655.463291836142	1099.534429615066	52.991000810759	644.916760203648	899.869215802089	38.543478269556	418.385305448116	973.871728450692	35.063204983778	337.174465094865	1056.808482715061	97.754030059063	361.411976043471	1185.559836555973	46.867814835937	336.753260834197	1057.666518023734	1076.306501854478	116.099017256032	1192.356079010644	853.798530526664	100.495770827491	941.115848715971	1129.992803213553	712.780090314617	981.806487945136	871.594711240585	730.114346748839	
2	44.183714285714	823.112451636657	1014.038781528726	448.122534339863	1013.508781151053	1424.649338383603	232.171379129948	1107.050028564732	1372.796241584900	404.038115369109	1015.373658751549	1460.215730208829	567.050417304678	986.916120860484	1501.377910448212	381.797578554473	1052.197231850463	959.386176876846	567.859041718728	1042.551105616123	966.912207901769	292.458792094806	1136.521280686145	789.339645960232	546.221178625088	1099.810663895010	668.989538202872	626.005239566781	1189.573135054278	628.973444039137	548.363779790321	1213.382230241660	522.272221711513	575.110117169769	1077.744305139423	752.140489454518	320.910294823433	980.997441393617	639.080393529470	268.186285800735	1067.816668553661	560.461602868614	325.754833781889	1065.349670215915	493.741105509584	336.096140084761	1041.888120525280	422.060441262894	332.458119384042	951.192301231038	303.135946152951	293.341934670639	1014.093448280416	196.667729314182	364.376334650977	1149.441521507292	440.925176212657	584.889987841578	1039.730857932163	382.607101794663	651.039637977689	1043.401692302401	271.482666892116	604.183305326650	857.172697470498	169.748603112426	585.333289706198	1034.506552603451	148.629024541282	618.425525095065	929.812959673877	125.456796741973	657.853029588637	1123.691471037753	54.863801267576	645.620478301434	894.019326720980	38.510363046072	418.382733365517	968.031020685344	35.054176645250	337.179519626031	1050.968319636924	97.749368754332	361.451018742496	1179.732407975695	46.857027634839	336.756830584594	1060.890098052484	1077.105748063086	114.687840734538	1201.011848539945	858.106799656246	99.488531118598	930.795351044156	1133.115704006363	710.729639608420	961.509502309062	874.166702654598	729.700186462552	
3	44.197428571429	821.546872006209	1014.418881943498	447.204595701272	1013.676557565438	1424.645950830701	231.186027687505	1106.229888074871	1372.747287926540	403.539830944720	1014.024943212340	1460.496445518817	566.012004796151	986.248167670878	1501.469492318284	380.688164005692	1050.418337122360	959.811915632678	567.433054235290	1040.491559922088	966.118366739196	292.131176464975	1134.941263107950	790.436340319004	545.081308348264	1099.705142192402	670.067096619961	625.207258296718	1188.379674791747	630.320951878652	546.260642173080	1214.287443055206	525.264425238421	572.934143315752	1074.945659944589	751.627144439501	320.922978864850	977.304867455751	639.110265759513	267.905750994315	1063.275526615350	559.949270842438	325.757550526373	1060.315678973960	493.486617995243	336.179151672704	1036.760560098676	421.903285307910	332.515297460982	945.979783740290	303.146289260189	293.209209241935	1008.518968678037	196.581632469551	364.418306586392	1153.711189791782	442.620010450273	583.784151923688	1048.105479301453	379.437646312942	651.555649827149	1056.612362202900	268.612516213671	604.690476646985	875.766850439080	157.755284788864	588.161414751144	1053.826058340138	145.682820019029	619.309941378616	951.171785053477	117.748686224051	660.181023293185	1147.762998828311	56.939331772485	646.296653145055	888.195138349735	38.474490886573	418.379543835396	962.213254911302	35.045160909451	337.183866434742	1045.148662086331	97.744969320039	361.493306064875	1173.925377168214	46.852523242375	336.762696616866	1063.984923344284	1077.860143598978	113.315622206522	1209.509441251398	862.391676970230	98.572394382053	920.660744711098	1136.228272509914	708.723669404973	941.594073221267	876.803341250847	729.281489269735	
4	44.211142857143	820.002416024990	1014.768050031627	446.338916435835	1013.836241144587	1424.598116039291	230.288139832767	1105.429833775424	1372.661819024090	403.114757360194	1012.722923462750	1460.744459096161	565.064821387390	985.603395021798	1501.530944334254	379.672022949270	1048.647067124668	960.159683350331	567.063785316623	1038.566230734431	965.456736775726	291.837660365983	1133.208646125948	791.331738405540	544.015872608377	1099.307974009718	670.984400247982	624.515910646776	1186.920481915267	631.445497525315	544.323631026870	1214.819113277324	528.069531041783	570.886319208456	1072.184187038838	751.104304831128	320.978353644317	973.660461585310	639.142076779828	267.645195709365	1058.745659006980	559.437490447662	325.816376702115	1055.287498312049	493.236951549453	336.311638240196	1031.645581626925	421.749178237295	332.603207894037	940.805618478996	303.147161167109	293.091045886796	1002.989757906962	196.495845311313	364.479395953594	1157.669150925057	444.219859638404	582.763795546127	1056.227945858836	376.272774475223	652.076175366048	1069.578670921554	265.874507586063	605.163091731912	894.349469330093	146.054494770758	590.809636587575	1072.893315790809	143.001357890438	620.108542840614	972.353894195871	110.363732532657	662.342035863083	1171.422782403992	59.350815311422	646.893304830950	882.438772037454	38.434987104443	418.374982283760	956.458346602846	35.035658343222	337.187391407962	1039.388133206828	97.741501270176	361.539143024497	1168.176914511659	46.858188916546	336.772242918081	1066.809239450678	1078.522676264904	112.037355022511	1217.631484751873	866.591325507031	97.844683516648	910.958150825675	1139.284871624701	706.829434410582	922.571878037695	879.510557894955	728.870517879261	
